<?xml version="1.0" encoding="UTF-8"?>
<svg width="444px" height="444px" viewBox="0 0 444 444" version="1.1" xmlns="http://www.w3.org/2000/svg" xmlns:xlink="http://www.w3.org/1999/xlink">
    <title>Fill 1</title>
    <g id="Page-1" stroke="none" stroke-width="1" fill="none" fill-rule="evenodd">
        <path d="M175.269,96.3203 C161.99,104.4633 152.321,118.1683 149.039,133.3903 C146.714,143.0953 147.513,153.1283 147.38,163.0013 C136.327,163.0193 125.274,163.0013 114.221,163.0093 C114.221,178.9063 114.204,194.8023 114.23,210.6903 C125.283,210.6813 136.327,210.7073 147.38,210.6723 C147.335,253.5973 147.442,296.5133 147.327,339.4393 C166.895,339.6333 186.482,339.5363 206.06,339.4833 C206.006,296.5493 206.033,253.6243 206.041,210.6903 C224.59,210.6983 243.139,210.6813 261.687,210.6903 C261.696,253.6413 261.696,296.5853 261.696,339.5273 C281.097,339.5463 300.506,339.5463 319.915,339.5273 C319.905,280.6883 319.915,221.8583 319.915,163.0193 C281.948,162.9923 243.99,163.0193 206.033,163.0013 C206.414,156.1703 204.773,148.7903 208.206,142.4923 C211.701,135.9723 219.303,132.7963 226.427,132.6633 C238.18,132.5743 249.942,132.6633 261.696,132.6193 C261.625,116.7053 261.838,100.7913 261.59,84.8853 C246.323,85.0363 231.048,84.8853 215.782,84.9573 C201.651,85.3383 187.289,88.6643 175.269,96.3203 M213.83,0.2333 L226.905,0.2333 C256.852,0.9783 286.685,7.6223 313.927,20.1383 C359.797,40.9313 398.154,77.9043 420.464,123.0653 C434.764,151.1503 442.276,182.4103 443.768,213.8213 L443.768,226.9413 C442.889,263.0083 433.317,298.9183 415.522,330.3383 C399.467,359.1143 376.82,384.1473 349.924,403.1663 C322.47,422.6013 290.544,435.7133 257.306,440.9553 C248.337,442.5073 239.244,443.0923 230.179,443.7673 L217.112,443.7673 C176.236,442.8443 135.653,430.5233 101.403,408.1423 C79.2,393.7453 59.613,375.3213 43.841,354.0753 C22.889,325.8843 8.722,292.6463 3.151,257.9443 C1.528,248.7713 0.916,239.4663 0.233,230.1873 L0.233,217.0683 C1.093,181.6383 10.319,146.3603 27.537,115.3563 C52.038,70.4083 92.665,34.5453 140.292,15.7923 C163.666,6.3623 188.699,1.4923 213.83,0.2333" id="Fill-1" fill="#1DBF73"></path>
    </g>
</svg>