<?xml version="1.0" encoding="UTF-8"?>
<svg width="478px" height="180px" viewBox="0 0 478 180" version="1.1" xmlns="http://www.w3.org/2000/svg" xmlns:xlink="http://www.w3.org/1999/xlink">
    <title>Udemy_logo</title>
    <g id="Page-1" stroke="none" stroke-width="1" fill="none" fill-rule="evenodd">
        <g id="Udemy_logo" transform="translate(-0, 0)" fill="#FFFFFF" fill-rule="nonzero">
            <polygon id="Path" points="73.9947335 44 36.9921002 22 2.84217094e-14 44 2.84217094e-14 22 36.9973667 0 74 22 74 44"></polygon>
            <path d="M2.84217094e-14,61.0518148 L19.4495859,61.0518148 L19.4495859,108.357024 C19.4495859,120.578816 28.5665793,126.536277 37.1286253,126.536277 C45.7646643,126.536277 54.8129499,120.420091 54.8129499,108.193009 L54.8129499,61.0518148 L74.2625358,61.0518148 L74.2625358,109.483969 C74.2625358,120.742831 70.7267279,129.430355 63.6551122,135.387817 C56.5782112,141.339988 47.7413341,144.239357 36.9647837,144.239357 C26.1988036,144.239357 17.3566413,141.345279 10.4488672,135.387817 C3.53580787,129.435646 2.84217094e-14,121.070862 2.84217094e-14,109.965433 L2.84217094e-14,61.0518148 Z M242.411605,119.843392 C236.523877,125.091884 229.816941,127.663222 222.169237,127.663222 C208.216274,127.663222 198.861446,119.70583 197.804403,107.383514 L260.645592,107.383514 C260.645592,107.383514 261.068409,103.404818 261.068409,99.6695002 C261.068409,88.0826073 257.36876,78.4268632 249.810904,70.5435434 C242.422176,62.6602236 232.781946,58.797926 221.043487,58.797926 C208.670802,58.797926 198.539048,62.6602236 190.500238,70.5435434 C182.62527,78.4268632 178.608507,88.7227964 178.608507,101.600649 L178.608507,102.235547 C178.608507,114.949385 182.62527,125.086593 190.500238,132.652464 C198.375206,140.213044 208.824073,144.075341 221.524441,144.075341 C236.291328,144.075341 248.040358,138.244859 256.856094,128.192304 L242.411605,119.843392 Z M205.446822,80.3580121 C209.780697,76.9771789 215.092336,75.2100455 221.038202,75.2100455 C226.661669,75.2100455 231.323227,76.9771789 235.345275,80.5220274 C239.18234,83.7494268 241.254144,87.71225 241.433841,92.2676449 L198.301213,92.2676449 C198.924868,87.5588163 201.303214,83.5907023 205.452107,80.3633029 L205.446822,80.3580121 Z M438.197057,155.006173 C430.306233,173.656308 422.050729,180 409.392643,180 L400.619188,180 L400.619188,162.74135 L407.711945,162.74135 C412.066961,162.74135 416.115434,161.101196 419.97364,152.191457 L423.831846,143.271137 L390.556142,61.0518148 L410.328126,61.0518148 L433.958315,120.266657 L458.233301,61.0518148 L478,61.0518148 L438.202342,155.006173 L438.197057,155.006173 Z M149.978505,30 L149.978505,68.3954711 C143.604538,62.6813869 133.689477,59.2793905 124.1021,59.2793905 C112.686038,59.2793905 103.045809,63.3004127 95.1708407,71.5011816 C87.4544289,79.5485168 83.596223,89.52171 83.596223,101.590067 C83.596223,113.663716 87.4544289,123.636909 95.1708407,131.842969 C103.045809,139.890304 112.691324,143.916617 124.1021,143.916617 C137.262281,143.916617 145.581208,138.736905 149.978505,134.678847 L149.978505,142.144192 L169.269535,142.144192 L169.269535,30.0052908 L149.978505,30.0052908 L149.978505,30 Z M144.191196,119.298437 C139.529638,123.96494 133.583773,126.382844 126.670714,126.382844 C119.757654,126.382844 114.134187,123.96494 109.472629,119.298437 C104.980197,114.631935 102.723411,108.679764 102.723411,101.600649 C102.723411,94.5162428 104.974912,88.5640718 109.472629,83.8975698 C114.134187,79.2310677 119.757654,76.8184544 126.670714,76.8184544 C133.583773,76.8184544 139.529638,79.2310677 144.191196,83.8975698 C149.011311,88.5640718 151.431939,94.5162428 151.431939,101.600649 C151.431939,108.679764 149.011311,114.631935 144.191196,119.298437 Z M360.56784,59.4434059 C345.917228,59.4434059 338.301235,65.5278473 333.084729,71.3900744 C330.99707,67.406088 325.119912,59.4434059 311.388928,59.4434059 C299.782599,59.4434059 292.943532,65.3162146 289.529284,69.4959613 L289.529284,61.0623964 L270.407382,61.0623964 L270.407382,142.154774 L289.529284,142.154774 L289.529284,95.4897534 C289.529284,84.5483404 296.283787,76.6650206 305.279221,76.6650206 C314.449066,76.6650206 319.750135,83.5854114 319.750135,94.685549 L319.750135,142.149483 L338.877323,142.149483 L338.877323,95.4844626 C338.877323,84.3843251 345.462699,76.6597298 354.944373,76.6597298 C364.108933,76.6597298 369.410002,83.5801206 369.410002,94.6749674 L369.410002,142.144192 L388.701032,142.144192 L388.701032,91.9449049 C388.701032,70.8027936 377.348393,59.4486967 360.56784,59.4486967 L360.56784,59.4434059 Z" id="Shape"></path>
        </g>
    </g>
</svg>